<svg xmlns="http://www.w3.org/2000/svg" version="1.1" xmlns:xlink="http://www.w3.org/1999/xlink" xmlns:svgjs="http://svgjs.dev/svgjs" width="1000" height="1000" viewBox="0 0 1000 1000"><rect width="1000" height="1000" fill="#ffffff"></rect><g transform="matrix(0.7,0,0,0.7,149.5757576139335,448.75873068380173)"><svg viewBox="0 0 396 58" data-background-color="#ffffff" preserveAspectRatio="xMidYMid meet" height="146" width="1000" xmlns="http://www.w3.org/2000/svg" xmlns:xlink="http://www.w3.org/1999/xlink"><defs></defs><g id="tight-bounds" transform="matrix(1,0,0,1,0.2400000215966429,0.08017241036694145)"><svg viewBox="0 0 395.52 57.83940763564552" height="57.83940763564552" width="395.52"><g><svg viewBox="0 0 476.58255905165555 69.6937017218543" height="57.83940763564552" width="395.52"><g transform="matrix(1,0,0,1,0,25.215327682119202)"><svg viewBox="0 0 395.5199999999999 19.26304635761589" height="19.26304635761589" width="395.5199999999999"><g><svg viewBox="0 0 395.5199999999999 19.26304635761589" height="19.26304635761589" width="395.5199999999999"><g><svg viewBox="0 0 395.5199999999999 19.26304635761589" height="19.26304635761589" width="395.5199999999999"><g transform="matrix(1,0,0,1,0,0)"><svg width="395.5199999999999" viewBox="2.6500000953674316 -34.79999923706055 724.739990234375 35.29999923706055" height="19.26304635761589" data-palette-color="#ffa400"><path d="M2.65-34.3L15.55-34.3 15.55-29.85 11.55-29.85 11.55-4.45 15.55-4.45 15.55 0 2.65 0 2.65-4.45 6.65-4.45 6.65-29.85 2.65-29.85 2.65-34.3ZM52.85-34.3L60.5-34.3 60.5 0 55.6 0 55.6-28.55 55.3-28.55 43.45 0 39.3 0 27.5-28.55 27.25-28.55 27.25 0 22.8 0 22.8-34.3 30.5-34.3 41.55-7.3 41.75-7.3 52.85-34.3ZM78.69-34.3L84.09-34.3 97.5 0 92.19 0 89.3-7.45 72.89-7.45 70.05 0 65.3 0 78.69-34.3ZM87.59-11.9L81.3-28.4 81-28.4 74.64-11.9 87.59-11.9ZM114.89-34.8Q118.89-34.8 121.87-33.25 124.84-31.7 126.44-28.85 128.04-26 128.04-22.25L128.04-22.25 123.14-22.25Q123.14-26.1 121.02-28.23 118.89-30.35 114.89-30.35L114.89-30.35Q110.39-30.35 108.04-27.58 105.69-24.8 105.69-19.4L105.69-19.4 105.69-14.9Q105.69-9.5 108.02-6.73 110.34-3.95 114.89-3.95L114.89-3.95Q119.24-3.95 121.24-6.13 123.24-8.3 123.24-13.05L123.24-13.05 123.24-13.7 113.54-13.7 113.54-18.1 128.04-18.1 128.04-6.4Q128.04-2.25 128.34 0L128.34 0 125.44 0Q124.79-2.05 124.44-4.1L124.44-4.1Q121.19 0.5 114.89 0.5L114.89 0.5Q108.24 0.5 104.52-3.58 100.79-7.65 100.79-14.9L100.79-14.9 100.79-19.4Q100.79-26.6 104.52-30.7 108.24-34.8 114.89-34.8L114.89-34.8ZM134.19-34.3L147.09-34.3 147.09-29.85 143.09-29.85 143.09-4.45 147.09-4.45 147.09 0 134.19 0 134.19-4.45 138.19-4.45 138.19-29.85 134.19-29.85 134.19-34.3ZM175.39-34.3L179.84-34.3 179.84 0 175.69 0 158.94-25.1 158.79-25.05 158.79 0 154.34 0 154.34-34.3 158.64-34.3 175.24-9.5 175.39-9.55 175.39-34.3ZM189.03-34.3L211.53-34.3 210.88-29.85 193.94-29.85 193.94-19.75 209.28-19.75 209.28-15.3 193.94-15.3 193.94-4.45 211.19-4.45 211.88 0 189.03 0 189.03-34.3ZM227.53-34.3L253.93-34.3 253.93-29.85 243.18-29.85 243.18 0 238.28 0 238.28-29.85 227.53-29.85 227.53-34.3ZM280.33-34.3L285.23-34.3 285.23 0 280.33 0 280.33-15.3 264.68-15.3 264.68 0 259.78 0 259.78-34.3 264.68-34.3 264.68-19.75 280.33-19.75 280.33-34.3ZM303.43-34.3L308.82-34.3 322.22 0 316.93 0 314.02-7.45 297.63-7.45 294.77 0 290.02 0 303.43-34.3ZM312.32-11.9L306.02-28.4 305.72-28.4 299.38-11.9 312.32-11.9ZM323.67-34.3L350.07-34.3 350.07-29.85 339.32-29.85 339.32 0 334.42 0 334.42-29.85 323.67-29.85 323.67-34.3ZM382.92-34.3Q385.82-34.3 388.17-33 390.52-31.7 391.84-29.43 393.17-27.15 393.17-24.3L393.17-24.3Q393.17-21.45 391.84-19.18 390.52-16.9 388.17-15.6 385.82-14.3 382.92-14.3L382.92-14.3 373.02-14.3 373.02 0 368.12 0 368.12-34.3 382.92-34.3ZM382.47-29.85L373.02-29.85 373.02-18.75 382.47-18.75Q384.82-18.75 386.54-20.38 388.27-22 388.27-24.3L388.27-24.3Q388.27-26.65 386.54-28.25 384.82-29.85 382.47-29.85L382.47-29.85ZM419.86-34.3L424.76-34.3 424.76 0 419.86 0 419.86-15.3 404.21-15.3 404.21 0 399.31 0 399.31-34.3 404.21-34.3 404.21-19.75 419.86-19.75 419.86-34.3ZM446.61-34.8Q450.86-34.8 454.06-32.95 457.26-31.1 459.04-27.63 460.81-24.15 460.81-19.4L460.81-19.4 460.81-14.9Q460.81-10.15 459.04-6.68 457.26-3.2 454.06-1.35 450.86 0.5 446.61 0.5L446.61 0.5Q442.36 0.5 439.16-1.35 435.96-3.2 434.19-6.68 432.41-10.15 432.41-14.9L432.41-14.9 432.41-19.4Q432.41-24.15 434.19-27.63 435.96-31.1 439.16-32.95 442.36-34.8 446.61-34.8L446.61-34.8ZM446.61-30.35Q442.21-30.35 439.76-27.55 437.31-24.75 437.31-19.4L437.31-19.4 437.31-14.9Q437.31-9.55 439.69-6.75 442.06-3.95 446.61-3.95L446.61-3.95Q451.01-3.95 453.46-6.73 455.91-9.5 455.91-14.9L455.91-14.9 455.91-19.4Q455.91-24.75 453.54-27.55 451.16-30.35 446.61-30.35L446.61-30.35ZM465.11-34.3L491.51-34.3 491.51-29.85 480.76-29.85 480.76 0 475.86 0 475.86-29.85 465.11-29.85 465.11-34.3ZM509.46-34.8Q513.71-34.8 516.91-32.95 520.11-31.1 521.88-27.63 523.66-24.15 523.66-19.4L523.66-19.4 523.66-14.9Q523.66-10.15 521.88-6.68 520.11-3.2 516.91-1.35 513.71 0.5 509.46 0.5L509.46 0.5Q505.21 0.5 502.01-1.35 498.81-3.2 497.03-6.68 495.26-10.15 495.26-14.9L495.26-14.9 495.26-19.4Q495.26-24.15 497.03-27.63 498.81-31.1 502.01-32.95 505.21-34.8 509.46-34.8L509.46-34.8ZM509.46-30.35Q505.06-30.35 502.61-27.55 500.16-24.75 500.16-19.4L500.16-19.4 500.16-14.9Q500.16-9.55 502.53-6.75 504.91-3.95 509.46-3.95L509.46-3.95Q513.86-3.95 516.31-6.73 518.76-9.5 518.76-14.9L518.76-14.9 518.76-19.4Q518.76-24.75 516.38-27.55 514.01-30.35 509.46-30.35L509.46-30.35ZM553.45-34.8Q555.4-34.8 556.95-34.45L556.95-34.45 556.95-29.9Q555.55-30.35 554.15-30.35L554.15-30.35Q551.1-30.35 549.28-28.98 547.45-27.6 547.45-25.15L547.45-25.15Q547.45-22.8 549.38-21.28 551.3-19.75 554.2-19.75L554.2-19.75 560.35-19.75 561.75-26.9 565.15-26.9 565.15-19.75 570.55-19.75 570.55-15.3 565.15-15.3 565.15 0 553.9 0Q548.45 0 545.13-2.53 541.8-5.05 541.8-9.65L541.8-9.65Q541.8-15.85 548.1-17.7L548.1-17.7 548.25-17.8Q545.65-18.95 544.13-20.75 542.6-22.55 542.6-25.05L542.6-25.05Q542.6-28.35 544.2-30.55 545.8-32.75 548.28-33.77 550.75-34.8 553.45-34.8L553.45-34.8ZM560.25-15.3L554.55-15.3Q550.75-15.3 548.73-13.93 546.7-12.55 546.7-9.9L546.7-9.9Q546.7-7.25 548.78-5.85 550.85-4.45 554.6-4.45L554.6-4.45 560.25-4.45 560.25-15.3ZM609.35-34.3L614.1-34.3 601.9 0 596.65 0 584.45-34.3 589.7-34.3 599.35-6.65 599.65-6.65 609.35-34.3ZM616.99-34.3L629.89-34.3 629.89-29.85 625.89-29.85 625.89-4.45 629.89-4.45 629.89 0 616.99 0 616.99-4.45 620.99-4.45 620.99-29.85 616.99-29.85 616.99-34.3ZM649.04-34.3Q653.34-34.3 656.54-32.43 659.74-30.55 661.49-27.08 663.24-23.6 663.24-18.9L663.24-18.9 663.24-15.4Q663.24-10.7 661.49-7.23 659.74-3.75 656.54-1.88 653.34 0 649.04 0L649.04 0 637.14 0 637.14-34.3 649.04-34.3ZM649.04-29.85L642.04-29.85 642.04-4.45 649.04-4.45Q653.49-4.45 655.92-7.23 658.34-10 658.34-15.4L658.34-15.4 658.34-18.9Q658.34-24.2 655.97-27.03 653.59-29.85 649.04-29.85L649.04-29.85ZM670.89-34.3L693.39-34.3 692.74-29.85 675.79-29.85 675.79-19.75 691.14-19.75 691.14-15.3 675.79-15.3 675.79-4.45 693.04-4.45 693.74 0 670.89 0 670.89-34.3ZM713.19-34.8Q717.44-34.8 720.64-32.95 723.84-31.1 725.61-27.63 727.39-24.15 727.39-19.4L727.39-19.4 727.39-14.9Q727.39-10.15 725.61-6.68 723.84-3.2 720.64-1.35 717.44 0.5 713.19 0.5L713.19 0.5Q708.94 0.5 705.74-1.35 702.54-3.2 700.76-6.68 698.99-10.15 698.99-14.9L698.99-14.9 698.99-19.4Q698.99-24.15 700.76-27.63 702.54-31.1 705.74-32.95 708.94-34.8 713.19-34.8L713.19-34.8ZM713.19-30.35Q708.79-30.35 706.34-27.55 703.89-24.75 703.89-19.4L703.89-19.4 703.89-14.9Q703.89-9.55 706.26-6.75 708.64-3.95 713.19-3.95L713.19-3.95Q717.59-3.95 720.04-6.73 722.49-9.5 722.49-14.9L722.49-14.9 722.49-19.4Q722.49-24.75 720.11-27.55 717.74-30.35 713.19-30.35L713.19-30.35Z" opacity="1" transform="matrix(1,0,0,1,0,0)" fill="#ffa400" class="undefined-text-0" data-fill-palette-color="primary" id="text-0"></path></svg></g></svg></g></svg></g></svg></g><g transform="matrix(1,0,0,1,406.8888573298012,0)"><svg viewBox="0 0 69.6937017218543 69.6937017218543" height="69.6937017218543" width="69.6937017218543"><g><svg viewBox="0 0 69.6937017218543 69.6937017218543" height="69.6937017218543" width="69.6937017218543"><g transform="matrix(1,0,0,1,18.478165231430232,22.812065532691662)"><svg viewBox="0 0 32.73737125899383 24.069570656470972" height="24.069570656470972" width="32.73737125899383"><g><svg xmlns="http://www.w3.org/2000/svg" xmlns:xlink="http://www.w3.org/1999/xlink" version="1.1" x="0" y="0" viewBox="9.88800048828125 20.507999420166016 80.2249984741211 58.984004974365234" enable-background="new 0 0 100 100" xml:space="preserve" height="24.069570656470972" width="32.73737125899383" class="icon-x-0" data-fill-palette-color="accent" id="x-0"><g fill="#ffa400" data-fill-palette-color="accent"><path d="M82.112 20.508H17.888c-4.418 0-8 3.582-8 8v42.984c0 4.418 3.582 8 8 8h64.225c4.418 0 8-3.582 8-8V28.508C90.112 24.089 86.53 20.508 82.112 20.508zM82.112 71.492H17.888V28.508h64.225V71.492z" fill="#ffa400" data-fill-palette-color="accent"></path><path d="M37.627 66.596c0.619 0.357 1.309 0.536 2 0.536 0.69 0 1.381-0.179 2-0.536l22.746-13.132c1.238-0.714 2-2.035 2-3.464 0-1.429-0.762-2.75-2-3.464L41.627 33.404c-1.237-0.715-2.763-0.715-4 0-1.238 0.714-2 2.035-2 3.464v26.264C35.627 64.561 36.389 65.882 37.627 66.596zM43.627 43.796L54.373 50l-10.746 6.204V43.796z" fill="#ffa400" data-fill-palette-color="accent"></path></g></svg></g></svg></g><path d="M0.859 25.868l0.423-1.461 0.5 0.145-0.131 0.451 2.873 0.832 0.131-0.451 0.5 0.145-0.423 1.461-0.5-0.145 0.133-0.461-2.873-0.832-0.133 0.461zM3.035 20.087l0.343-0.83 3.727 1.54-0.222 0.538-3.105-1.283-0.011 0.028 2.574 2.566-0.187 0.453-3.635 0.001-0.011 0.028 3.104 1.283-0.199 0.481-3.727-1.54 0.347-0.84 3.43 0.014 0.007-0.019zM4.684 17.077l0.331-0.539 4.26 0.768-0.326 0.531-0.924-0.172-1.009 1.645 0.572 0.746-0.293 0.478zM7.474 17.567l-2.043-0.379-0.016 0.026 1.264 1.649zM7.195 13.32c0.192-0.248 0.407-0.425 0.645-0.534 0.239-0.108 0.486-0.144 0.743-0.109 0.253 0.041 0.495 0.15 0.726 0.33v0l-0.35 0.452c-0.237-0.183-0.475-0.26-0.713-0.23-0.229 0.029-0.44 0.168-0.631 0.416v0c-0.217 0.28-0.295 0.559-0.236 0.837 0.06 0.279 0.256 0.547 0.59 0.806v0l0.42 0.325c0.334 0.258 0.643 0.381 0.928 0.369 0.285-0.012 0.535-0.158 0.752-0.438v0c0.208-0.269 0.293-0.518 0.254-0.745-0.044-0.232-0.211-0.461-0.502-0.686v0l-0.064-0.05-0.7 0.904-0.404-0.312 1.044-1.348 1.081 0.837c0.258 0.2 0.466 0.343 0.623 0.43v0l-0.213 0.275c-0.158-0.062-0.308-0.131-0.448-0.205v0c0.127 0.425 0.04 0.832-0.259 1.219v0c-0.321 0.414-0.695 0.637-1.123 0.667-0.432 0.036-0.872-0.119-1.319-0.465v0l-0.419-0.325c-0.447-0.346-0.707-0.732-0.781-1.16-0.083-0.426 0.035-0.846 0.356-1.26zM8.841 11.433l1.041-1.108 0.379 0.356-0.321 0.342 2.18 2.048 0.322-0.342 0.379 0.356-1.041 1.109-0.379-0.356 0.328-0.35-2.18-2.048-0.329 0.35zM12.515 7.951l0.388-0.347 2.686 3.008-0.358 0.32-3.435-0.889-0.008 0.022 1.958 2.193-0.388 0.347-2.686-3.009 0.373-0.333 3.399 0.88 0.009-0.022zM14.034 6.796l2.169-1.512 0.231 0.474-1.633 1.139 0.683 0.979 1.483-1.033 0.297 0.427-1.482 1.033 0.73 1.047 1.666-1.162 0.365 0.381-2.202 1.535zM18.183 4.173l2.791-1.357 0.228 0.468-1.139 0.553 1.536 3.159-0.514 0.25-1.536-3.159-1.138 0.554zM24.122 1.651l0.547-0.2 1.384 3.788-0.546 0.199-0.617-1.687-1.726 0.631 0.617 1.687-0.537 0.196-1.384-3.787 0.536-0.196 0.589 1.611 1.726-0.631zM27.094 0.894l0.618-0.134 2.392 3.607-0.609 0.132-0.515-0.786-1.886 0.409-0.143 0.929-0.549 0.12zM28.67 3.247l-1.14-1.737-0.03 0.006-0.317 2.054zM29.677 0.366l3.086-0.331 0.056 0.517-1.259 0.136 0.375 3.491-0.568 0.061-0.375-3.491-1.259 0.135zM36.985 0.066c0.231 0.009 0.437 0.068 0.617 0.176 0.18 0.109 0.317 0.254 0.412 0.435 0.095 0.187 0.139 0.39 0.131 0.607v0c-0.008 0.224-0.067 0.423-0.176 0.596-0.109 0.18-0.257 0.314-0.444 0.402-0.187 0.095-0.397 0.138-0.629 0.13v0l-1.163-0.044-0.063 1.683-0.571-0.021 0.152-4.03zM36.915 0.584l-1.112-0.042-0.05 1.306 1.112 0.042c0.184 0.007 0.346-0.048 0.487-0.166 0.141-0.124 0.215-0.278 0.221-0.461v0c0.007-0.184-0.055-0.339-0.186-0.467-0.131-0.134-0.289-0.205-0.472-0.212zM41.571 0.628l0.575 0.087-0.605 3.987-0.575-0.087 0.269-1.777-1.816-0.275-0.27 1.776-0.565-0.086 0.605-3.987 0.565 0.086-0.257 1.696 1.817 0.275zM44.956 1.435c0.314 0.09 0.571 0.242 0.771 0.456 0.202 0.207 0.335 0.461 0.397 0.762 0.056 0.299 0.031 0.629-0.072 0.988v0l-0.147 0.511c-0.102 0.353-0.256 0.642-0.462 0.865-0.213 0.222-0.46 0.367-0.741 0.435-0.283 0.074-0.582 0.066-0.896-0.024v0c-0.32-0.092-0.581-0.245-0.781-0.459-0.202-0.207-0.331-0.46-0.387-0.759-0.062-0.301-0.042-0.628 0.059-0.982v0l0.147-0.51c0.104-0.36 0.262-0.651 0.474-0.873 0.206-0.224 0.45-0.37 0.732-0.437 0.283-0.074 0.585-0.065 0.906 0.027zM44.809 1.945c-0.334-0.096-0.622-0.066-0.866 0.091-0.25 0.155-0.433 0.435-0.55 0.84v0l-0.147 0.51c-0.115 0.399-0.111 0.729 0.013 0.992 0.114 0.267 0.345 0.45 0.691 0.549v0c0.327 0.094 0.612 0.063 0.856-0.093 0.25-0.155 0.433-0.435 0.55-0.841v0l0.147-0.51c0.117-0.406 0.114-0.739-0.01-1.001-0.116-0.26-0.345-0.439-0.684-0.537zM47.285 2.252l2.858 1.211-0.203 0.479-1.166-0.493-1.369 3.233-0.527-0.223 1.37-3.233-1.166-0.494zM52.261 4.554c0.286 0.158 0.502 0.364 0.65 0.617 0.151 0.247 0.223 0.524 0.217 0.831-0.013 0.304-0.11 0.62-0.292 0.948v0l-0.257 0.464c-0.178 0.321-0.393 0.568-0.644 0.74-0.257 0.169-0.53 0.255-0.82 0.258-0.293 0.009-0.582-0.066-0.868-0.224v0c-0.292-0.162-0.511-0.369-0.659-0.622-0.151-0.247-0.22-0.523-0.207-0.827 0.007-0.307 0.099-0.622 0.278-0.943v0l0.257-0.464c0.181-0.327 0.401-0.576 0.658-0.745 0.251-0.172 0.521-0.26 0.81-0.262 0.293-0.009 0.585 0.067 0.877 0.229zM52.004 5.018c-0.304-0.168-0.592-0.203-0.864-0.105-0.278 0.095-0.52 0.327-0.724 0.696v0l-0.257 0.464c-0.201 0.363-0.271 0.686-0.21 0.969 0.052 0.286 0.236 0.516 0.551 0.691v0c0.298 0.165 0.583 0.198 0.855 0.1 0.278-0.095 0.52-0.327 0.724-0.696v0l0.257-0.464c0.205-0.369 0.276-0.695 0.215-0.978-0.055-0.28-0.238-0.505-0.547-0.677zM56.882 7.687c0.122 0.098 0.221 0.198 0.295 0.301v0l-0.331 0.415c-0.064-0.095-0.138-0.176-0.223-0.244v0c-0.191-0.153-0.377-0.231-0.557-0.236-0.175-0.009-0.325 0.063-0.448 0.218v0c-0.115 0.144-0.147 0.309-0.097 0.497 0.041 0.189 0.149 0.354 0.324 0.494v0l0.567 0.453 0.656-0.56 0.311 0.248-0.529 0.662 0.495 0.395-0.325 0.407-0.495-0.395-1.121 1.404-1.029-0.822c-0.335-0.268-0.542-0.559-0.621-0.875-0.084-0.32-0.014-0.621 0.212-0.903v0c0.302-0.378 0.693-0.47 1.174-0.276v0l0.023 0.004c-0.104-0.197-0.16-0.389-0.166-0.577-0.001-0.184 0.058-0.35 0.176-0.499v0c0.161-0.202 0.345-0.334 0.552-0.396 0.202-0.056 0.405-0.055 0.61 0.005 0.2 0.055 0.382 0.149 0.547 0.28zM56.079 9.985l-0.527-0.421c-0.234-0.187-0.446-0.287-0.636-0.299-0.19-0.013-0.349 0.061-0.477 0.22v0c-0.132 0.165-0.168 0.341-0.108 0.528 0.06 0.187 0.204 0.372 0.433 0.555v0l0.518 0.414zM61.84 12.59l0.376 0.418-3.955 1.633-0.416-0.463 2.043-3.759 0.41 0.456-1.657 3.013 0.028 0.03zM62.546 13.427l0.925 1.207-0.413 0.317-0.286-0.373-2.374 1.82 0.286 0.373-0.413 0.317-0.926-1.208 0.413-0.316 0.292 0.38 2.374-1.819-0.292-0.381zM64.811 16.715c0.179 0.282 0.272 0.569 0.281 0.862 0.014 0.289-0.057 0.564-0.214 0.825-0.157 0.261-0.391 0.49-0.701 0.686v0l-0.354 0.224c-0.31 0.197-0.617 0.311-0.919 0.342-0.303 0.031-0.582-0.022-0.838-0.158-0.261-0.132-0.481-0.34-0.66-0.621v0l-0.749-1.181 3.405-2.16zM64.372 16.994l-0.443-0.698-2.526 1.602 0.443 0.698c0.186 0.293 0.422 0.462 0.708 0.506 0.286 0.044 0.607-0.047 0.963-0.272v0l0.354-0.225c0.351-0.222 0.569-0.469 0.654-0.741 0.088-0.281 0.037-0.571-0.153-0.87zM66.226 19.195l1.15 2.381-0.504 0.153-0.866-1.793-1.076 0.519 0.786 1.628-0.469 0.226-0.786-1.627-1.149 0.555 0.884 1.829-0.433 0.3-1.168-2.417zM68.302 24.033c0.107 0.309 0.131 0.607 0.072 0.893-0.053 0.285-0.184 0.539-0.394 0.764-0.213 0.218-0.496 0.388-0.85 0.51v0l-0.502 0.174c-0.347 0.12-0.672 0.161-0.973 0.121-0.304-0.046-0.565-0.164-0.782-0.355-0.224-0.189-0.389-0.438-0.497-0.747v0c-0.109-0.315-0.134-0.616-0.075-0.903 0.053-0.285 0.185-0.536 0.398-0.754 0.21-0.224 0.489-0.396 0.836-0.516v0l0.502-0.174c0.354-0.123 0.683-0.161 0.987-0.115 0.302 0.039 0.561 0.155 0.779 0.346 0.224 0.189 0.391 0.441 0.499 0.756zM67.801 24.207c-0.114-0.328-0.305-0.546-0.573-0.655-0.27-0.115-0.605-0.104-1.004 0.034v0l-0.501 0.174c-0.392 0.136-0.66 0.33-0.804 0.581-0.152 0.247-0.169 0.541-0.051 0.882v0c0.111 0.322 0.301 0.537 0.57 0.645 0.27 0.115 0.605 0.104 1.003-0.034v0l0.502-0.174c0.399-0.138 0.67-0.333 0.813-0.584 0.146-0.245 0.16-0.535 0.045-0.869zM5.722 43.447l0.423 1.461-0.5 0.145-0.131-0.451-2.873 0.832 0.131 0.451-0.5 0.145-0.423-1.461 0.5-0.145 0.133 0.461 2.873-0.832-0.133-0.461zM7.714 48.703l0.344 0.83-3.728 1.54-0.222-0.538 3.105-1.282-0.012-0.028-3.635-0.001-0.187-0.453 2.574-2.566-0.011-0.028-3.105 1.282-0.198-0.481 3.727-1.54 0.347 0.84-2.44 2.411 0.008 0.019zM9 50.999l0.331 0.54-2.615 3.448-0.326-0.531 0.573-0.746-1.009-1.645-0.925 0.172-0.293-0.478zM7.3 53.264l1.263-1.649-0.016-0.027-2.043 0.379zM11.296 54.23c0.192 0.248 0.31 0.5 0.354 0.758 0.045 0.258 0.018 0.507-0.08 0.747-0.103 0.234-0.27 0.441-0.501 0.62v0l-0.35-0.452c0.237-0.183 0.37-0.394 0.401-0.633 0.029-0.229-0.052-0.468-0.244-0.715v0c-0.217-0.28-0.467-0.426-0.752-0.438-0.285-0.012-0.594 0.111-0.928 0.369v0l-0.42 0.325c-0.334 0.258-0.53 0.527-0.59 0.806-0.06 0.279 0.019 0.558 0.236 0.837v0c0.208 0.269 0.428 0.413 0.658 0.434 0.236 0.015 0.499-0.089 0.789-0.315v0l0.065-0.05-0.7-0.904 0.404-0.312 1.043 1.348-1.082 0.837c-0.258 0.2-0.449 0.365-0.572 0.495v0l-0.213-0.275c0.1-0.138 0.204-0.265 0.311-0.382v0c-0.444 0.016-0.815-0.169-1.115-0.557v0c-0.321-0.414-0.442-0.833-0.364-1.254 0.074-0.427 0.334-0.814 0.781-1.16v0l0.419-0.325c0.447-0.346 0.886-0.501 1.319-0.465 0.433 0.026 0.81 0.246 1.131 0.661zM12.531 55.824l1.042 1.109-0.38 0.356-0.321-0.342-2.181 2.048 0.322 0.342-0.38 0.356-1.041-1.108 0.379-0.357 0.329 0.35 2.18-2.048-0.328-0.35zM15.887 58.996l0.388 0.347-2.685 3.008-0.358-0.32 0.495-3.513-0.022-0.006-1.958 2.193-0.389-0.347 2.686-3.008 0.373 0.334-0.49 3.476 0.022 0.006zM16.93 59.774l2.169 1.512-0.365 0.38-1.633-1.138-0.683 0.98 1.482 1.033-0.297 0.427-1.483-1.033-0.729 1.047 1.666 1.162-0.231 0.473-2.202-1.535zM20.397 61.998l2.791 1.357-0.228 0.468-1.138-0.554-1.536 3.159-0.514-0.25 1.536-3.159-1.139-0.553zM25.861 64.317l0.546 0.2-1.384 3.788-0.547-0.2 0.617-1.688-1.726-0.631-0.617 1.688-0.537-0.196 1.385-3.788 0.537 0.196-0.589 1.611 1.726 0.631zM28.167 64.881l0.619 0.135 0.681 4.274-0.608-0.132-0.143-0.93-1.886-0.409-0.515 0.787-0.549-0.119zM28.627 67.676l-0.317-2.053-0.03-0.007-1.14 1.738zM30.218 65.323l3.086 0.332-0.055 0.518-1.259-0.136-0.376 3.492-0.568-0.061 0.375-3.492-1.258-0.135zM36.794 65.598c0.231-0.009 0.441 0.034 0.628 0.13 0.187 0.095 0.336 0.229 0.444 0.402 0.109 0.18 0.168 0.378 0.176 0.596v0c0.008 0.224-0.035 0.427-0.13 0.608-0.095 0.187-0.233 0.332-0.413 0.434-0.18 0.109-0.385 0.168-0.616 0.177v0l-1.163 0.044 0.063 1.683-0.571 0.022-0.152-4.03zM36.763 66.121l-1.112 0.042 0.049 1.306 1.112-0.042c0.184-0.007 0.341-0.074 0.473-0.202 0.131-0.134 0.193-0.293 0.186-0.477v0c-0.007-0.184-0.081-0.334-0.222-0.452-0.141-0.124-0.303-0.183-0.486-0.175zM40.812 65.09l0.575-0.087 0.604 3.987-0.575 0.087-0.269-1.776-1.817 0.275 0.269 1.777-0.565 0.085-0.604-3.987 0.565-0.085 0.257 1.695 1.817-0.275zM43.521 64.305c0.314-0.09 0.613-0.098 0.896-0.024 0.282 0.068 0.529 0.213 0.741 0.435 0.206 0.224 0.361 0.516 0.465 0.875v0l0.147 0.511c0.102 0.353 0.125 0.679 0.069 0.978-0.062 0.301-0.194 0.555-0.397 0.763-0.201 0.214-0.458 0.365-0.772 0.455v0c-0.32 0.092-0.622 0.101-0.905 0.027-0.282-0.068-0.525-0.214-0.732-0.437-0.213-0.222-0.37-0.51-0.471-0.863v0l-0.147-0.51c-0.104-0.36-0.124-0.69-0.062-0.991 0.056-0.299 0.184-0.552 0.387-0.76 0.201-0.214 0.461-0.366 0.781-0.459zM43.668 64.816c-0.334 0.096-0.562 0.275-0.685 0.537-0.129 0.264-0.136 0.599-0.019 1.004v0l0.147 0.51c0.115 0.399 0.294 0.677 0.537 0.833 0.239 0.165 0.531 0.198 0.878 0.098v0c0.327-0.094 0.552-0.272 0.675-0.534 0.129-0.264 0.136-0.599 0.019-1.004v0l-0.147-0.51c-0.117-0.406-0.297-0.687-0.54-0.844-0.237-0.158-0.525-0.189-0.865-0.09zM45.31 63.809l2.858-1.21 0.203 0.479-1.165 0.494 1.369 3.234-0.526 0.223-1.37-3.234-1.166 0.494zM49.748 61.634c0.286-0.158 0.575-0.233 0.868-0.224 0.29 0.003 0.563 0.089 0.82 0.258 0.251 0.172 0.467 0.422 0.648 0.749v0l0.257 0.464c0.178 0.321 0.274 0.634 0.287 0.939 0.007 0.307-0.065 0.585-0.216 0.831-0.148 0.253-0.364 0.459-0.65 0.618v0c-0.292 0.162-0.584 0.238-0.877 0.229-0.29-0.003-0.56-0.091-0.811-0.263-0.257-0.169-0.475-0.414-0.653-0.736v0l-0.257-0.464c-0.181-0.327-0.276-0.645-0.282-0.952-0.013-0.304 0.056-0.58 0.207-0.827 0.148-0.253 0.367-0.46 0.659-0.622zM50.005 62.098c-0.304 0.168-0.486 0.394-0.547 0.677-0.067 0.286 0.002 0.614 0.206 0.983v0l0.258 0.464c0.201 0.363 0.438 0.594 0.71 0.692 0.27 0.107 0.562 0.074 0.877-0.101v0c0.298-0.165 0.477-0.389 0.539-0.672 0.067-0.286-0.002-0.614-0.207-0.982v0l-0.257-0.465c-0.205-0.369-0.443-0.603-0.715-0.701-0.266-0.101-0.554-0.066-0.864 0.105zM53.646 58.985c0.122-0.098 0.242-0.172 0.358-0.221v0l0.332 0.415c-0.106 0.041-0.202 0.096-0.287 0.164v0c-0.191 0.153-0.309 0.317-0.353 0.49-0.048 0.169-0.01 0.331 0.113 0.485v0c0.115 0.144 0.269 0.212 0.464 0.205 0.193 0.002 0.378-0.067 0.553-0.207v0l0.566-0.453-0.401-0.764 0.311-0.248 0.529 0.662 0.495-0.395 0.325 0.406-0.495 0.396 1.122 1.403-1.029 0.822c-0.335 0.268-0.665 0.405-0.991 0.413-0.331 0.011-0.608-0.124-0.833-0.406v0c-0.302-0.378-0.305-0.78-0.011-1.207v0l0.01-0.021c-0.215 0.058-0.415 0.07-0.6 0.035-0.18-0.039-0.329-0.134-0.448-0.282v0c-0.161-0.202-0.25-0.41-0.264-0.626-0.01-0.209 0.036-0.408 0.139-0.594 0.098-0.183 0.229-0.34 0.395-0.472zM55.709 60.276l-0.526 0.421c-0.234 0.187-0.378 0.372-0.433 0.555-0.054 0.183-0.018 0.354 0.11 0.513v0c0.132 0.165 0.295 0.239 0.491 0.222 0.196-0.017 0.408-0.117 0.636-0.299v0l0.519-0.415zM58.075 54.748l0.376-0.418 2.043 3.76-0.417 0.463-3.954-1.634 0.41-0.455 3.171 1.328 0.028-0.031zM58.527 54.216l0.926-1.207 0.413 0.317-0.286 0.373 2.374 1.819 0.286-0.372 0.413 0.316-0.925 1.208-0.414-0.317 0.292-0.381-2.374-1.82-0.292 0.381zM60.536 51.297c0.179-0.282 0.399-0.489 0.66-0.621 0.256-0.136 0.535-0.189 0.837-0.158 0.303 0.031 0.609 0.145 0.92 0.341v0l0.353 0.224c0.31 0.197 0.544 0.426 0.702 0.687 0.157 0.261 0.228 0.536 0.214 0.825-0.008 0.293-0.102 0.58-0.281 0.862v0l-0.749 1.181-3.405-2.16zM60.975 51.576l-0.442 0.698 2.526 1.602 0.442-0.698c0.186-0.293 0.238-0.578 0.157-0.856-0.082-0.278-0.301-0.529-0.658-0.756v0l-0.353-0.224c-0.351-0.222-0.667-0.314-0.95-0.276-0.292 0.041-0.532 0.21-0.722 0.51zM61.667 49.327l1.15-2.381 0.433 0.3-0.866 1.792 1.076 0.52 0.786-1.627 0.469 0.226-0.786 1.627 1.149 0.555 0.883-1.829 0.505 0.153-1.168 2.418zM63.402 44.993c0.107-0.309 0.272-0.557 0.497-0.747 0.217-0.191 0.478-0.31 0.782-0.355 0.302-0.039 0.63 0.002 0.983 0.125v0l0.502 0.173c0.347 0.12 0.627 0.289 0.84 0.507 0.21 0.224 0.342 0.479 0.394 0.764 0.059 0.287 0.035 0.585-0.072 0.893v0c-0.109 0.315-0.276 0.567-0.499 0.756-0.217 0.191-0.477 0.306-0.779 0.346-0.304 0.046-0.63 0.009-0.977-0.111v0l-0.502-0.174c-0.354-0.123-0.636-0.296-0.846-0.52-0.213-0.218-0.345-0.469-0.398-0.754-0.059-0.287-0.034-0.588 0.075-0.903zM63.904 45.167c-0.114 0.328-0.099 0.618 0.045 0.869 0.141 0.258 0.411 0.456 0.809 0.594v0l0.502 0.173c0.392 0.136 0.723 0.15 0.991 0.041 0.272-0.1 0.468-0.321 0.585-0.661v0c0.111-0.322 0.095-0.608-0.047-0.859-0.141-0.258-0.411-0.456-0.81-0.594v0l-0.502-0.174c-0.399-0.138-0.732-0.153-1-0.044-0.266 0.102-0.457 0.321-0.573 0.655zM0.555 35.362c0-0.863 0.7-1.563 1.562-1.563 0.863 0 1.563 0.7 1.563 1.563 0 0.863-0.7 1.563-1.563 1.563-0.863 0-1.563-0.7-1.562-1.563zM66.014 35.362c0-0.863 0.7-1.563 1.562-1.563 0.863 0 1.563 0.7 1.563 1.563 0 0.863-0.7 1.563-1.563 1.563-0.863 0-1.563-0.7-1.562-1.563z" fill="#ffa400" data-fill-palette-color="accent"></path></svg></g></svg></g></svg></g></svg><rect width="395.52" height="57.83940763564552" fill="none" stroke="none" visibility="hidden"></rect></g></svg></g></svg>